<svg xmlns="http://www.w3.org/2000/svg" version="1.1" xmlns:xlink="http://www.w3.org/1999/xlink" xmlns:svgjs="http://svgjs.dev/svgjs" width="2000" height="646" viewBox="0 0 2000 646"><g transform="matrix(1,0,0,1,-1.2121212121212466,-1.3358444135741365)"><svg viewBox="0 0 396 128" data-background-color="#89939e" preserveAspectRatio="xMidYMid meet" height="646" width="2000" xmlns="http://www.w3.org/2000/svg" xmlns:xlink="http://www.w3.org/1999/xlink"><g id="tight-bounds" transform="matrix(1,0,0,1,0.2400000000000091,0.2646874379837243)"><svg viewBox="0 0 395.52 127.47062512403254" height="127.47062512403254" width="395.52"><g><svg viewBox="0 0 395.52 127.47062512403254" height="127.47062512403254" width="395.52"><g><svg viewBox="0 0 395.52 127.47062512403254" height="127.47062512403254" width="395.52"><g id="textblocktransform"><svg viewBox="0 0 395.52 127.47062512403254" height="127.47062512403254" width="395.52" id="textblock"><g><svg viewBox="0 0 395.52 127.47062512403254" height="127.47062512403254" width="395.52"><g transform="matrix(1,0,0,1,0,0)"><svg width="395.52" viewBox="2.27 -40.25 125.96 40.6" height="127.47062512403254" data-palette-color="#ffffff"><path d="M7.88-2.53L7.88 0.33Q4.98 0.13 3.73-1.41 2.48-2.95 2.4-6.2L2.4-6.2Q2.33-9.73 2.3-13.15 2.27-16.57 2.27-19.98 2.27-23.38 2.3-26.81 2.33-30.25 2.4-33.77L2.4-33.77Q2.45-36.77 3.74-38.41 5.03-40.05 7.88-40.25L7.88-40.25 7.88-37.4Q6.78-37.23 6.28-36.49 5.78-35.75 5.73-34.25L5.73-34.25Q5.65-30.55 5.61-27.01 5.58-23.48 5.58-19.99 5.58-16.5 5.61-12.96 5.65-9.43 5.73-5.7L5.73-5.7Q5.78-4.25 6.26-3.5 6.75-2.75 7.88-2.53L7.88-2.53ZM10.08 0.33L10.08 0.33 10.08-2.55Q11.23-2.75 11.75-3.51 12.28-4.28 12.3-5.7L12.3-5.7Q12.33-7.08 12.33-8.58 12.33-10.08 12.3-11.58 12.28-13.08 12.25-14.43L12.25-14.43 15.58-14.43Q15.65-12.3 15.66-10.31 15.68-8.33 15.63-6.2L15.63-6.2Q15.5-3.03 14.21-1.48 12.93 0.08 10.08 0.33ZM15.38-26.1L12.08-26.1Q12.1-27.38 12.11-28.78 12.13-30.18 12.13-31.59 12.13-33 12.1-34.25L12.1-34.25Q12.08-35.65 11.6-36.4 11.13-37.15 10.08-37.38L10.08-37.38 10.08-40.25Q12.8-40 14.05-38.46 15.3-36.93 15.43-33.75L15.43-33.75Q15.45-32.8 15.45-31.36 15.45-29.93 15.43-28.49 15.4-27.05 15.38-26.1L15.38-26.1ZM21.92 0L18.52 0 22.8-40 29.25-40 29.57-37 25.3-37 24.22-22.93 23.37-14.6 27.35-14.6 26.55-11.6 23.12-11.6 21.92 0ZM33.42 0L30.05 0 27.8-22.98 26.87-35.48 29.67-35.48 33.42 0ZM50.84 0L47.37 0 43.72-15.28 42.35-15.28 42.35-18.28 43.35-18.28Q45.05-18.28 45.82-19.07 46.6-19.88 46.67-21.6L46.67-21.6Q46.75-23.58 46.77-25.61 46.8-27.65 46.77-29.68 46.75-31.7 46.67-33.68L46.67-33.68Q46.6-35.4 45.83-36.2 45.07-37 43.4-37L43.4-37 42.67-37 42.67-40 43.4-40Q46.8-40 48.32-38.5 49.85-37 49.97-33.52L49.97-33.52Q50.07-31.3 50.1-29.31 50.12-27.33 50.1-25.46 50.07-23.6 49.97-21.75L49.97-21.75Q49.82-17.07 46.82-15.9L46.82-15.9 50.84 0ZM40.47 0L37.17 0 37.17-40 40.47-40 40.47 0ZM58.09 0L54.79 0 54.79-40 58.09-40 58.09 0ZM66.09 0L60.29 0 60.29-3 66.09-3 66.09 0ZM69.74-27.35L67.69-27.35 67.69-30 69.74-30 69.74-38.5 73.07-38.5 73.07-5.43Q73.07-3.63 73.57-2.95 74.07-2.27 75.92-2.27L75.92-2.27Q76.62-2.27 77.07-2.31 77.52-2.35 78.09-2.45L78.09-2.45 78.09 0.1Q77.62 0.2 77.03 0.28 76.44 0.35 75.87 0.35L75.87 0.35Q72.37 0.35 71.05-1.07 69.74-2.5 69.74-5.75L69.74-5.75 69.74-27.35ZM77.59-27.35L74.89-27.35 74.89-30 77.59-30 77.59-27.35ZM80.59-5.75L80.59-5.75Q80.54-7.78 80.51-10.13 80.49-12.48 80.49-14.94 80.49-17.4 80.51-19.78 80.54-22.15 80.59-24.2L80.59-24.2Q80.74-27.2 81.99-28.64 83.24-30.08 85.91-30.28L85.91-30.28 85.91-27.6Q84.89-27.38 84.41-26.66 83.94-25.95 83.91-24.63L83.91-24.63Q83.86-21.95 83.84-19.61 83.81-17.28 83.81-15.05 83.81-12.83 83.84-10.49 83.86-8.15 83.91-5.45L83.91-5.45Q83.94-3.98 84.4-3.29 84.86-2.6 85.91-2.4L85.91-2.4 85.91 0.3Q83.16 0.08 81.94-1.35 80.71-2.78 80.59-5.75ZM88.11 0.3L88.11 0.3 88.11-2.4Q89.09-2.6 89.54-3.3 89.99-4 90.06-5.45L90.06-5.45Q90.11-6.4 90.1-7.6 90.09-8.8 90.01-10.3L90.01-10.3 93.26-10.3Q93.34-9.18 93.35-7.95 93.36-6.73 93.31-5.75L93.31-5.75Q93.16-2.78 91.99-1.34 90.81 0.1 88.11 0.3ZM93.26-14.3L85.66-14.3 85.66-16.78 90.06-16.78Q90.11-18.53 90.11-20.08 90.11-21.63 90.1-22.79 90.09-23.95 90.06-24.63L90.06-24.63Q89.96-25.95 89.51-26.66 89.06-27.38 88.11-27.6L88.11-27.6 88.11-30.3Q90.76-30.08 91.96-28.68 93.16-27.28 93.31-24.3L93.31-24.3Q93.34-23.55 93.36-22.05 93.39-20.55 93.38-18.57 93.36-16.6 93.26-14.3L93.26-14.3ZM97.71-5.75L97.71-5.75Q97.66-7.78 97.64-10.13 97.61-12.48 97.61-14.94 97.61-17.4 97.64-19.78 97.66-22.15 97.71-24.2L97.71-24.2Q97.86-27.2 99.09-28.64 100.31-30.08 103.04-30.3L103.04-30.3 103.04-27.6Q101.99-27.43 101.52-26.75 101.06-26.08 101.04-24.63L101.04-24.63Q100.99-21.95 100.96-19.61 100.94-17.28 100.94-15.03 100.94-12.78 100.96-10.45 100.99-8.13 101.04-5.45L101.04-5.45Q101.06-4 101.52-3.3 101.99-2.6 103.04-2.4L103.04-2.4 103.04 0.3Q100.29 0.08 99.06-1.35 97.84-2.78 97.71-5.75ZM105.21 0.3L105.21 0.3 105.21-2.4Q106.24-2.6 106.69-3.3 107.14-4 107.19-5.45L107.19-5.45Q107.19-6.43 107.2-7.63 107.21-8.83 107.14-10.3L107.14-10.3 110.39-10.3Q110.46-9.18 110.47-7.95 110.49-6.73 110.44-5.75L110.44-5.75Q110.31-2.78 109.1-1.34 107.89 0.1 105.21 0.3ZM110.39-19.78L107.14-19.78Q107.19-20.63 107.2-21.5 107.21-22.38 107.2-23.2 107.19-24.03 107.19-24.63L107.19-24.63Q107.14-26.08 106.69-26.75 106.24-27.43 105.21-27.6L105.21-27.6 105.21-30.3Q107.91-30.1 109.14-28.68 110.36-27.25 110.44-24.3L110.44-24.3Q110.46-23.33 110.46-22.13 110.46-20.93 110.39-19.78L110.39-19.78ZM118.31 0L115.08 0 115.08-16.48 118.66-16.48 120.66-22.1 123.61-30 127.08-30 118.31-9.33 118.31 0ZM117.98-17.95L115.08-17.95 115.08-40 118.23-40 118.23-30.7 117.98-17.95ZM124.76 0L120.78-11.48 122.78-15.28 128.23 0 124.76 0Z" opacity="1" transform="matrix(1,0,0,1,0,0)" fill="#ffffff" class="wordmark-text-0" data-fill-palette-color="primary" id="text-0"></path></svg></g></svg></g></svg></g></svg></g><g></g></svg></g><defs></defs></svg><rect width="395.52" height="127.47062512403254" fill="none" stroke="none" visibility="hidden"></rect></g></svg></g></svg>